<?xml version="1.0" encoding="UTF-8"?>
<svg version="1.1" xmlns="http://www.w3.org/2000/svg" width="922" height="1024">
<path d="M0 0 C12.33587207 9.49436774 20.60860545 22.51176161 22.95703125 37.9296875 C24.37282271 55.18314613 21.16345027 70.84108325 10.69921875 84.98046875 C-0.11729731 97.55336442 -13.91741711 105.16678156 -30.48046875 106.7421875 C-32.00038304 106.82404606 -33.52124958 106.89488727 -35.04296875 106.9296875 C-35.30207031 108.12271484 -35.30207031 108.12271484 -35.56640625 109.33984375 C-37.86431957 119.19557291 -40.85099809 128.76571982 -43.99359131 138.38241577 C-48.11323348 150.99172944 -52.0997826 163.63912513 -56.04296875 176.3046875 C-61.73340171 194.56699867 -67.46588179 212.81564609 -73.23046875 231.0546875 C-73.79976105 232.85602646 -73.79976105 232.85602646 -74.3805542 234.6937561 C-76.23646674 240.56568063 -78.09291096 246.43743684 -79.94970703 252.30908203 C-82.76233271 261.20383064 -85.57117332 270.09977383 -88.37979126 278.99578857 C-89.60327834 282.87094596 -90.82703303 286.74601883 -92.05078125 290.62109375 C-92.4389502 291.85029541 -92.82711914 293.07949707 -93.22705078 294.34594727 C-93.49630371 295.19858154 -93.76555664 296.05121582 -94.04296875 296.9296875 C-93.71296875 297.2596875 -93.38296875 297.5896875 -93.04296875 297.9296875 C-92.18316406 297.24003906 -91.32335937 296.55039062 -90.4375 295.83984375 C-66.04694014 276.38795462 -45.5285937 268.85988029 -14.578125 267.76171875 C-12.44717828 267.67736917 -10.31627337 267.59195735 -8.18540955 267.50553894 C-2.62765838 267.28295299 2.9305352 267.07462262 8.48895264 266.8694458 C14.18112999 266.65674279 19.87275982 266.43030053 25.56445312 266.20507812 C36.69482395 265.76664092 47.82571181 265.34329003 58.95703125 264.9296875 C59.15224869 264.0036245 59.15224869 264.0036245 59.35140991 263.05885315 C59.5259671 262.24867233 59.70052429 261.43849152 59.88037109 260.60375977 C60.05176605 259.80075943 60.22316101 258.99775909 60.39974976 258.17042542 C62.37269989 250.237515 68.50771451 242.75862682 74.95703125 237.9296875 C83.60804537 233.40731081 91.32817216 231.77707787 100.95703125 231.69140625 C101.8291626 231.6833345 102.70129395 231.67526276 103.59985352 231.66694641 C105.44561805 231.6531427 107.29140771 231.64240402 109.13720703 231.63452148 C111.00284439 231.62305306 112.86845029 231.60268365 114.73388672 231.57299805 C129.9933907 231.3305472 144.11592302 231.92065715 155.95703125 242.9296875 C158.23279457 245.7937744 160.17592843 248.73673488 161.95703125 251.9296875 C179.73258476 243.5152243 195.22501646 232.36171504 209.66015625 219.03515625 C211.16572889 217.655048 212.69666704 216.30200339 214.25390625 214.98046875 C220.27809925 209.8599047 225.07375836 204.1280249 229.95703125 197.9296875 C230.92576172 196.79466797 230.92576172 196.79466797 231.9140625 195.63671875 C251.44774544 172.52252366 268.0907135 138.79695743 265.95703125 107.9296875 C265.88871094 106.93582031 265.82039063 105.94195312 265.75 104.91796875 C264.61566683 94.58431821 260.90150414 84.12066519 253.14453125 76.8671875 C237.56556441 64.99607457 219.04717518 64.77459715 200.32006836 64.81616211 C198.5355123 64.8164445 196.75095613 64.81628523 194.96640015 64.8157196 C190.1426965 64.81543367 185.31901792 64.82129745 180.49532008 64.82829356 C175.44647141 64.83456104 170.39762211 64.83513358 165.34877014 64.83631897 C155.79737797 64.83942229 146.2459973 64.84762219 136.69461018 64.85766846 C125.81673817 64.86886065 114.9388656 64.87434787 104.06098926 64.87936389 C81.69299689 64.88980566 59.32501472 64.90738572 36.95703125 64.9296875 C35.95703125 62.9296875 35.95703125 62.9296875 36.38671875 60.39453125 C37.09999984 56.06110434 37.10259055 51.87474586 37.08203125 47.4921875 C37.08589844 46.67169922 37.08976562 45.85121094 37.09375 45.00585938 C37.08774082 41.24110912 36.97745686 37.61656125 36.38671875 33.89453125 C36.24492187 32.91613281 36.103125 31.93773437 35.95703125 30.9296875 C37.97590192 28.91081683 42.11438775 29.74438323 44.88549805 29.72436523 C45.72458206 29.71447697 46.56366608 29.7045887 47.42817688 29.69440079 C50.25417173 29.6624736 53.08018202 29.63782281 55.90625 29.61328125 C57.91299287 29.59244803 59.91973214 29.57126647 61.9264679 29.54975891 C67.36631987 29.49318889 72.80621308 29.44372779 78.24615479 29.39665222 C81.63473285 29.36727245 85.02329921 29.33676463 88.41186523 29.30603027 C103.46694057 29.17079886 118.52211781 29.05600841 133.57744598 28.9529953 C136.87799028 28.93023262 140.17852773 28.90663927 143.47906494 28.88287354 C155.461158 28.79784097 167.44309854 28.73332003 179.42544556 28.69851685 C183.08190333 28.68754183 186.73822672 28.66979353 190.3946228 28.64596558 C222.54764231 28.44545855 254.8977643 28.53049817 279.95703125 51.9296875 C296.92018566 69.45318635 303.26681347 91.83998664 303.02392578 115.77734375 C302.18442932 142.78829565 291.89920775 170.11320501 277.95703125 192.9296875 C277.39048828 193.87231445 277.39048828 193.87231445 276.8125 194.83398438 C268.40150935 208.75818621 258.22651099 221.22495267 246.95703125 232.9296875 C246.40611816 233.50251465 245.85520508 234.0753418 245.28759766 234.66552734 C223.4486238 257.23632942 197.19400363 276.10604882 167.95703125 287.9296875 C167.29703125 287.9296875 166.63703125 287.9296875 165.95703125 287.9296875 C165.98023438 288.90808594 166.0034375 289.88648438 166.02734375 290.89453125 C166.04539062 292.20550781 166.0634375 293.51648438 166.08203125 294.8671875 C166.10523438 296.15496094 166.1284375 297.44273437 166.15234375 298.76953125 C166.14112159 301.90724616 165.53412036 304.36839177 164.58203125 307.34765625 C163.90159586 310.18280371 163.79066005 311.51340832 164.88232422 314.24487305 C166.40935506 316.71589128 168.06194292 319.00168959 169.83203125 321.3046875 C170.44046875 322.14193359 171.04890625 322.97917969 171.67578125 323.84179688 C173.41244314 326.22324067 175.18028946 328.57808618 176.95703125 330.9296875 C178.29347336 332.76075587 179.62746526 334.59362019 180.95703125 336.4296875 C181.87355469 337.67298828 181.87355469 337.67298828 182.80859375 338.94140625 C186.31308325 343.81583256 189.66562811 348.79392987 193.04345703 353.7565918 C196.25081911 358.46044564 199.49791568 363.12744143 202.83203125 367.7421875 C207.13805466 373.70437376 211.26970046 379.77859313 215.39453125 385.8671875 C220.21382038 392.97809902 225.12874228 399.98759569 230.25244141 406.88183594 C233.55205648 411.33477441 236.64056473 415.89839357 239.68359375 420.53125 C242.58589551 424.9101145 245.62351754 429.1948334 248.64453125 433.4921875 C253.45539729 440.34019214 258.23266948 447.20917577 262.95703125 454.1171875 C263.47225342 454.87008057 263.98747559 455.62297363 264.51831055 456.39868164 C268.03558075 461.55074746 271.50625825 466.73287843 274.95703125 471.9296875 C272.22518644 474.66153231 269.64625271 474.6423025 265.95703125 474.9296875 C265.18359375 474.99542969 264.41015625 475.06117188 263.61328125 475.12890625 C249.34988141 475.75185594 236.97488954 471.28159607 226.01171875 462.34375 C221.6187011 458.3053257 218.53994756 453.48887142 215.3203125 448.5 C212.53355502 444.22526295 209.52268619 440.11634173 206.51953125 435.9921875 C201.22634195 428.70649051 196.04482637 421.36089789 190.95703125 413.9296875 C189.18727733 411.34561274 187.41651228 408.76223562 185.64453125 406.1796875 C185.18836426 405.51485352 184.73219727 404.85001953 184.26220703 404.16503906 C179.85655762 397.75821579 175.37395223 391.40678863 170.87890625 385.0625 C166.2593404 378.53741264 161.68431321 371.98135744 157.125 365.4140625 C156.47080078 364.47175781 155.81660156 363.52945312 155.14257812 362.55859375 C153.82167533 360.65535746 152.50135267 358.7517184 151.18164062 356.84765625 C149.83541109 354.90940217 148.46822633 352.98555951 147.08203125 351.07568359 C145.5054579 348.74161601 144.25406139 346.60769129 143.00390625 344.11572266 C140.47358973 339.40536537 138.03429082 334.91139095 132.68795776 333.20581055 C126.01725223 332.12052238 119.30530104 332.49937752 112.58203125 332.8046875 C108.59536833 332.91599677 104.60887324 332.98955305 100.62109375 333.046875 C99.20007607 333.07304649 99.20007607 333.07304649 97.75035095 333.0997467 C87.0376791 333.16833157 77.83671297 330.52005045 69.95703125 322.9296875 C65.22449437 318.12912648 62.63762195 313.61172284 60.75390625 307.12109375 C60.41198242 305.95908447 60.07005859 304.7970752 59.71777344 303.59985352 C59.46672852 302.71869873 59.21568359 301.83754395 58.95703125 300.9296875 C41.16889089 301.48359668 23.3841219 302.12314503 5.60021973 302.79864502 C3.31907401 302.8851479 1.03790568 302.97105687 -1.24328613 303.05633545 C-8.5107001 303.32858058 -15.77709563 303.6190616 -23.04296875 303.9296875 C-23.91146454 303.96528778 -24.77996033 304.00088806 -25.67477417 304.03756714 C-28.01163074 304.13639351 -30.34753075 304.24736232 -32.68359375 304.36328125 C-34.58866699 304.45307251 -34.58866699 304.45307251 -36.53222656 304.54467773 C-45.79846069 305.56087045 -53.1498268 309.42274582 -60.12109375 315.42578125 C-63.97329632 318.72693345 -67.97125234 321.82245237 -71.98046875 324.9296875 C-72.7701001 325.54368408 -73.55973145 326.15768066 -74.37329102 326.7902832 C-79.24813041 330.57111263 -84.17431968 334.26189322 -89.18359375 337.86328125 C-92.95034061 340.58542482 -96.68848302 343.34428244 -100.41796875 346.1171875 C-101.09682129 346.61686035 -101.77567383 347.1165332 -102.47509766 347.63134766 C-103.44842041 348.35717041 -103.44842041 348.35717041 -104.44140625 349.09765625 C-105.01552246 349.52328857 -105.58963867 349.9489209 -106.18115234 350.38745117 C-111.55562793 354.83940006 -114.0143732 358.37628856 -116.0078125 364.93359375 C-116.2496376 365.69389389 -116.49146271 366.45419403 -116.74061584 367.23753357 C-117.24463503 368.83622248 -117.74089085 370.43737768 -118.22973633 372.04077148 C-118.98139604 374.49521544 -119.76517397 376.93772976 -120.55273438 379.38085938 C-121.03971137 380.93949596 -121.52480395 382.49872282 -122.0078125 384.05859375 C-122.24306137 384.78784561 -122.47831024 385.51709747 -122.72068787 386.26844788 C-123.93033179 390.2670332 -123.93033179 390.2670332 -123.26708984 394.29614258 C-121.7976683 396.257032 -120.29810584 398.17074226 -118.73046875 400.0546875 C-109.35563672 412.0217288 -105.77665387 425.80525067 -107.04296875 440.9296875 C-109.22678465 458.24282254 -117.12350312 472.3207175 -130.73828125 483.0546875 C-145.65515466 493.14423453 -161.77688576 495.89857381 -179.3828125 493.46875 C-182.05313139 492.80215057 -184.49841936 491.97697465 -187.04296875 490.9296875 C-188.00074219 490.53910156 -188.95851562 490.14851563 -189.9453125 489.74609375 C-201.85472048 484.33551329 -211.3925681 476.23163242 -218.04296875 464.9296875 C-218.63851562 463.93001953 -218.63851562 463.93001953 -219.24609375 462.91015625 C-220.31520145 460.95145521 -221.20362649 458.9969564 -222.04296875 456.9296875 C-222.34203125 456.20265625 -222.64109375 455.475625 -222.94921875 454.7265625 C-227.97691997 439.92277557 -226.16080454 422.70836552 -219.5703125 408.828125 C-211.38537296 393.54183129 -198.43878162 383.93619484 -182.04296875 378.9296875 C-176.51606978 377.93942613 -171.19483981 377.80863647 -165.60546875 377.8671875 C-164.77853516 377.87169922 -163.95160156 377.87621094 -163.09960938 377.88085938 C-161.08069729 377.89252939 -159.06182301 377.91046032 -157.04296875 377.9296875 C-156.85663879 377.33755463 -156.67030884 376.74542175 -156.47833252 376.13534546 C-154.47448613 369.76751125 -152.47040107 363.39975219 -150.46615601 357.03204346 C-149.6813187 354.53852166 -148.8965085 352.04499132 -148.11172485 349.55145264 C-140.26470675 324.61965746 -140.26470675 324.61965746 -136.9453125 314.1328125 C-136.71675064 313.41063034 -136.48818878 312.68844818 -136.25270081 311.94438171 C-136.02807663 311.23465714 -135.80345245 310.52493256 -135.57202148 309.79370117 C-135.12481988 308.38070211 -134.67763566 306.96769754 -134.23046875 305.5546875 C-134.00481232 304.84164459 -133.77915588 304.12860168 -133.54666138 303.39395142 C-130.13566579 292.61006882 -126.75515446 281.81677477 -123.38671875 271.01953125 C-123.17960455 270.35568483 -122.97249035 269.69183842 -122.75909996 269.00787544 C-121.90455378 266.26883653 -121.05004906 263.52978468 -120.19555187 260.79073048 C-113.08314529 237.99267014 -105.93220599 215.20866042 -98.64770508 192.46484375 C-93.53111433 176.48655554 -88.46796055 160.49161626 -83.41796875 144.4921875 C-83.03356628 143.27467804 -82.64916382 142.05716858 -82.25311279 140.80276489 C-80.46635465 135.14299915 -78.68153508 129.48264292 -76.90136719 123.82080078 C-75.75077584 120.16387399 -74.589038 116.51100933 -73.41113281 112.86279297 C-73.17214264 112.11658188 -72.93315247 111.37037079 -72.68692017 110.60154724 C-72.07587104 108.69529134 -71.45935457 106.79079022 -70.84228516 104.88647461 C-69.86899192 101.79660919 -69.86899192 101.79660919 -70.04296875 97.9296875 C-71.51717028 96.41292581 -71.51717028 96.41292581 -73.54296875 95.1796875 C-85.62058388 86.61672228 -93.95955846 74.79927677 -96.74560547 60.04785156 C-99.12172379 43.12239787 -96.62543634 27.29271799 -87.04296875 12.9296875 C-81.65496121 5.88701354 -75.60894885 0.52331827 -68.04296875 -4.0703125 C-67.2746875 -4.54339844 -66.50640625 -5.01648438 -65.71484375 -5.50390625 C-44.66881648 -17.24647444 -19.2129035 -13.07168017 0 0 Z M-56.359375 28.1796875 C-56.91496094 28.7571875 -57.47054687 29.3346875 -58.04296875 29.9296875 C-58.80609375 30.7134375 -59.56921875 31.4971875 -60.35546875 32.3046875 C-63.99412 37.96481167 -65.85442273 44.20621164 -65.04296875 50.9296875 C-62.90164118 59.08366931 -59.96333314 65.94009901 -52.57421875 70.4296875 C-44.57865188 74.56856917 -38.04343662 76.13871905 -29.10546875 73.8046875 C-21.2046761 71.22312151 -16.11156911 66.90860404 -11.953125 59.76171875 C-8.73720506 53.28847218 -8.86225951 44.85832543 -10.9140625 38.03125 C-14.16777598 31.09710652 -18.65726042 25.88298077 -25.29296875 22.0546875 C-37.12075561 18.50635144 -47.26562349 19.39698986 -56.359375 28.1796875 Z M90.95703125 261.9296875 C89.33148866 265.18077268 89.77262099 268.75864656 89.75390625 272.33203125 C89.74820618 273.16553604 89.7425061 273.99904083 89.7366333 274.85780334 C89.72718081 276.62223032 89.72064833 278.38667496 89.71679688 280.15112305 C89.70708221 282.85301385 89.67605821 285.5541469 89.64453125 288.25585938 C89.63800212 289.96874547 89.63275129 291.68163702 89.62890625 293.39453125 C89.61655945 294.2039769 89.60421265 295.01342255 89.5914917 295.84739685 C89.50247493 300.00643883 89.50247493 300.00643883 91.23823547 303.64175415 C94.26028143 305.90624295 98.0055023 305.37621558 101.640625 305.36328125 C102.49253922 305.3685231 103.34445343 305.37376495 104.22218323 305.37916565 C106.02351797 305.38558754 107.82489464 305.38424667 109.6262207 305.37573242 C112.38113214 305.36722886 115.13396572 305.39596919 117.88867188 305.42773438 C119.6393223 305.42934666 121.38997639 305.42876833 123.140625 305.42578125 C124.37515663 305.44263222 124.37515663 305.44263222 125.6346283 305.45982361 C129.21360604 305.41626735 131.3727136 305.28287078 134.47705078 303.40649414 C136.55413378 299.93041248 136.51170481 296.73780591 136.453125 292.8046875 C136.45530785 291.6288208 136.45530785 291.6288208 136.45753479 290.42919922 C136.4558779 288.77502722 136.44433997 287.12083948 136.42358398 285.46679688 C136.39462798 282.93813444 136.40297826 280.41156945 136.41601562 277.8828125 C136.40977778 276.27342733 136.40138647 274.66404877 136.390625 273.0546875 C136.39356064 272.3004248 136.39649628 271.54616211 136.39952087 270.76904297 C136.34560063 267.76132503 136.09171753 265.25717656 134.94311523 262.46435547 C131.83239803 260.06067159 128.52384803 260.28642375 124.74609375 260.25 C123.9409433 260.2287204 123.13579285 260.2074408 122.3062439 260.18551636 C120.60344913 260.14464236 118.90040235 260.11331457 117.19726562 260.09082031 C114.59791197 260.05490691 112.00089491 259.98698354 109.40234375 259.9140625 C107.74613375 259.87830485 106.08988273 259.84439026 104.43359375 259.8125 C103.27242538 259.7830278 103.27242538 259.7830278 102.08779907 259.75296021 C97.94243365 259.71176765 94.62754525 259.9114779 90.95703125 261.9296875 Z M-187.04296875 417.9296875 C-192.23303823 424.48556473 -193.58753327 430.59727158 -193.4140625 438.83203125 C-192.46996003 446.71280239 -188.33673736 452.65038095 -182.2109375 457.5234375 C-175.26580083 462.02839102 -167.84360169 462.95688292 -159.79296875 461.53125 C-152.5447293 459.59335265 -147.00722058 455.00451302 -142.625 448.98046875 C-138.90068689 442.35199812 -138.23280459 435.13529018 -140.04296875 427.8046875 C-142.75186024 419.99670615 -148.20009375 415.01451056 -155.1484375 410.83984375 C-166.20440425 405.52842055 -178.58672236 410.04869597 -187.04296875 417.9296875 Z " fill="#0F0E0C" transform="translate(422.04296875,246.0703125)"></path>
</svg>